Coordinates
nRows=4
nColumns=38

# SIMM Motion File Header:
name Coordinates
datacolumns 38
datarows 4
otherdata 1
range 1.22800000000000000000 1.23100000000000010000

Units are S.I. units (second, meters, Newtons, ...)
Angles are in degrees.

endheader
time	pelvis_tilt	pelvis_list	pelvis_rotation	pelvis_tx	pelvis_ty	pelvis_tz	hip_flexion_r	hip_adduction_r	hip_rotation_r	knee_angle_r	ankle_angle_r	subtalar_angle_r	mtp_angle_r	hip_flexion_l	hip_adduction_l	hip_rotation_l	knee_angle_l	ankle_angle_l	subtalar_angle_l	mtp_angle_l	lumbar_extension	lumbar_bending	lumbar_rotation	arm_flex_r	arm_add_r	arm_rot_r	elbow_flex_r	pro_sup_r	wrist_flex_r	wrist_dev_r	arm_flex_l	arm_add_l	arm_rot_l	elbow_flex_l	pro_sup_l	wrist_flex_l	wrist_dev_l
      1.22800000000000000000	     -2.93228176631999780000	      4.91342470164188330000	      5.54835243932133880000	      0.93802609944670434000	      1.05456589958079430000	     -0.34798657151066925000	     -9.58216587809307900000	      2.70514396219963520000	     -4.21211538978896890000	    -74.05193626986287800000	    -11.25558997064121800000	     -0.00000000000003963527	     -0.00000000000003397925	     29.48085365893915400000	     11.85794377287945900000	      1.89758354035683570000	    -10.95570554867373200000	     -9.37507569310241530000	     -0.00000000000003310936	     -0.00000000000004100216	     -4.51448331487173690000	     -3.59539777171399690000	     13.71119897332253100000	    -30.22114514935951500000	    -12.79254630686510900000	     -0.78820729375362175000	    125.03142203154113000000	    102.54255475143037000000	     -0.00000000000000941251	      0.00000000000000288307	    -45.96919227833594600000	    -10.42177414453122700000	     -9.69933352538273400000	    118.85560012134643000000	     89.82356496866786700000	      0.00000000000000222473	     -0.00000000000001051351
      1.22900000000000010000	     -2.94164416280587740000	      4.93461804031636840000	      5.59017903410704960000	      0.93781086834821870000	      1.05413314649208110000	     -0.34796474493265162000	     -9.28350204883965980000	      2.67475429253691970000	     -4.27221211278016620000	    -74.73393449102675800000	    -11.04564283432786600000	     -0.00000000000003979686	     -0.00000000000003426276	     29.43620598250159800000	     11.92334015981577400000	      2.07544810547019450000	    -11.07537843423135700000	     -9.42705710123339100000	     -0.00000000000003327553	     -0.00000000000004116978	     -4.53953310577937330000	     -3.64611655068504970000	     13.62243874560311600000	    -30.33171397729931900000	    -12.78908848185914200000	     -0.89242847557461968000	    124.89795124095389000000	    102.44731612885738000000	     -0.00000000000000947644	      0.00000000000000290213	    -45.79354235213570200000	    -10.46457893240694000000	     -9.70276572763159000000	    118.74606190135263000000	     89.79078485830062600000	      0.00000000000000224215	     -0.00000000000001056544
      1.23000000000000000000	     -2.95202812755309060000	      4.95276722416563860000	      5.63114090747442650000	      0.93759201792593716000	      1.05368992144434450000	     -0.34793829431115508000	     -8.98090704510375560000	      2.64777899270028480000	     -4.32938859752916730000	    -75.41347046715471000000	    -10.83649492008992300000	     -0.00000000000003995788	     -0.00000000000003454752	     29.39367886216372100000	     11.98479820752238300000	      2.25697132711535580000	    -11.20323212806637000000	     -9.47878711032127620000	     -0.00000000000003344256	     -0.00000000000004133584	     -4.56355584973364170000	     -3.69393795557877440000	     13.53353212213698200000	    -30.44142701272447500000	    -12.78629963907357600000	     -0.99760572734934116000	    124.76320474816158000000	    102.35169255435734000000	     -0.00000000000000954086	      0.00000000000000292147	    -45.61628113333608100000	    -10.50833104947011300000	     -9.70562548783890660000	    118.63575923952044000000	     89.75766771966459600000	      0.00000000000000225907	     -0.00000000000001061833
      1.23100000000000010000	     -2.96339776352503750000	      4.96788108189402690000	      5.67117782430489910000	      0.93736978582877695000	      1.05323623684947920000	     -0.34790719501906714000	     -8.67442850142804640000	      2.62417616961893470000	     -4.38376147066746040000	    -76.09047405168321600000	    -10.62833941406379000000	     -0.00000000000004011994	     -0.00000000000003483211	     29.35311192328324000000	     12.04230540471356100000	      2.44187752127178740000	    -11.33899031106290400000	     -9.53004619957819980000	     -0.00000000000003361099	     -0.00000000000004150155	     -4.58654157479219120000	     -3.73886860987093920000	     13.44451522152638000000	    -30.55029983146387500000	    -12.78419559076556100000	     -1.10369467184125920000	    124.62722141240455000000	    102.25567182955498000000	     -0.00000000000000960513	      0.00000000000000294092	    -45.43749706298128600000	    -10.55298435011462400000	     -9.70792708504097490000	    118.52472178773168000000	     89.72432635280253500000	      0.00000000000000227569	     -0.00000000000001067222
